<svg xmlns="http://www.w3.org/2000/svg" viewBox="0 0 960 620" role="img" aria-labelledby="title desc">
  <title id="title">FusionPrep AI learning dashboard</title>
  <desc id="desc">A polished abstract dashboard showing Oracle HCM learning paths, release checks, and interview practice.</desc>
  <defs>
    <linearGradient id="bg" x1="0" x2="1" y1="0" y2="1">
      <stop offset="0" stop-color="#17324d"/>
      <stop offset=".52" stop-color="#0f766e"/>
      <stop offset="1" stop-color="#a15c07"/>
    </linearGradient>
    <linearGradient id="panel" x1="0" x2="1" y1="0" y2="1">
      <stop offset="0" stop-color="#ffffff" stop-opacity=".96"/>
      <stop offset="1" stop-color="#eef4f8" stop-opacity=".9"/>
    </linearGradient>
    <filter id="soft" x="-20%" y="-20%" width="140%" height="140%">
      <feDropShadow dx="0" dy="22" stdDeviation="22" flood-color="#0b1220" flood-opacity=".22"/>
    </filter>
  </defs>
  <rect width="960" height="620" fill="url(#bg)"/>
  <path d="M0 508c128-72 243-54 346-22 122 38 230 82 365 20 104-48 173-126 249-134v248H0z" fill="#111827" opacity=".28"/>
  <g filter="url(#soft)">
    <rect x="86" y="74" width="788" height="472" rx="26" fill="url(#panel)"/>
  </g>
  <rect x="122" y="113" width="202" height="394" rx="18" fill="#111827"/>
  <circle cx="160" cy="153" r="18" fill="#f8fafc"/>
  <rect x="190" y="141" width="96" height="13" rx="6.5" fill="#f8fafc" opacity=".88"/>
  <rect x="190" y="164" width="62" height="10" rx="5" fill="#d9e2ef" opacity=".62"/>
  <rect x="148" y="222" width="138" height="16" rx="8" fill="#14b8a6"/>
  <rect x="148" y="270" width="112" height="16" rx="8" fill="#eab308"/>
  <rect x="148" y="318" width="126" height="16" rx="8" fill="#60a5fa"/>
  <rect x="148" y="366" width="92" height="16" rx="8" fill="#f87171"/>
  <rect x="360" y="113" width="454" height="94" rx="18" fill="#ffffff"/>
  <text x="390" y="154" fill="#111827" font-family="Arial, sans-serif" font-size="28" font-weight="700">FusionPrep AI</text>
  <text x="390" y="181" fill="#5c667a" font-family="Arial, sans-serif" font-size="18">Daily HCM learning plan</text>
  <rect x="665" y="137" width="108" height="38" rx="19" fill="#0f766e"/>
  <text x="694" y="162" fill="#ffffff" font-family="Arial, sans-serif" font-size="16" font-weight="700">26B</text>
  <g>
    <rect x="360" y="242" width="204" height="118" rx="18" fill="#eff6ff"/>
    <rect x="596" y="242" width="218" height="118" rx="18" fill="#ecfdf5"/>
    <rect x="360" y="389" width="204" height="118" rx="18" fill="#fff7ed"/>
    <rect x="596" y="389" width="218" height="118" rx="18" fill="#fef2f2"/>
    <text x="389" y="286" fill="#2556a3" font-family="Arial, sans-serif" font-size="20" font-weight="700">Interview</text>
    <text x="389" y="319" fill="#5c667a" font-family="Arial, sans-serif" font-size="16">Answer drills</text>
    <text x="625" y="286" fill="#28734c" font-family="Arial, sans-serif" font-size="20" font-weight="700">Implementation</text>
    <text x="625" y="319" fill="#5c667a" font-family="Arial, sans-serif" font-size="16">Use-case notes</text>
    <text x="389" y="433" fill="#a15c07" font-family="Arial, sans-serif" font-size="20" font-weight="700">AI Agents</text>
    <text x="389" y="466" fill="#5c667a" font-family="Arial, sans-serif" font-size="16">Governance lab</text>
    <text x="625" y="433" fill="#b42318" font-family="Arial, sans-serif" font-size="20" font-weight="700">Releases</text>
    <text x="625" y="466" fill="#5c667a" font-family="Arial, sans-serif" font-size="16">Readiness watch</text>
  </g>
  <path d="M470 360v29M564 301h32M470 242v-35M705 360v29" stroke="#94a3b8" stroke-width="8" stroke-linecap="round"/>
</svg>
